<?xml version="1.0" standalone="no"?>
<!DOCTYPE svg PUBLIC "-//W3C//DTD SVG 20010904//EN"
 "http://www.w3.org/TR/2001/REC-SVG-20010904/DTD/svg10.dtd">
<svg version="1.0" xmlns="http://www.w3.org/2000/svg"
 width="500.000000pt" height="500.000000pt" viewBox="0 0 500.000000 500.000000"
 preserveAspectRatio="xMidYMid meet">

<g transform="translate(0.000000,500.000000) scale(0.100000,-0.100000)"
fill="#000000" stroke="none">
<path d="M3100 3543 c-158 -135 -180 -156 -174 -162 3 -3 32 -8 65 -11 l60 -5
-45 -93 c-57 -116 -164 -276 -271 -407 -88 -106 -249 -275 -264 -275 -5 0 -24
17 -42 38 -44 50 -170 191 -191 214 -35 35 -47 26 -188 -137 -52 -60 -109
-126 -126 -145 -17 -19 -62 -69 -98 -110 -37 -41 -72 -85 -78 -97 -15 -32 -3
-53 29 -52 23 0 54 29 179 172 84 95 169 193 190 219 22 25 45 49 51 52 7 3
62 -50 129 -124 93 -105 121 -130 142 -130 21 0 55 28 157 132 228 232 380
441 476 655 21 48 33 63 42 56 6 -5 31 -24 55 -42 l43 -33 -7 43 c-3 24 -10
60 -14 79 -4 19 -14 77 -21 128 -7 50 -18 92 -23 91 -6 0 -40 -25 -76 -56z"/>
<path d="M2351 3559 c-338 -60 -602 -330 -662 -677 -19 -108 5 -369 36 -400 3
-3 20 8 37 26 l32 31 -12 64 c-56 303 67 598 317 760 107 69 187 99 318 117
116 17 292 -10 383 -59 11 -6 26 1 50 22 32 28 33 30 14 44 -10 7 -61 27 -114
44 -80 26 -115 31 -220 34 -69 2 -149 0 -179 -6z"/>
<path d="M2750 3175 c0 -85 2 -155 4 -155 2 0 20 23 40 50 36 50 36 50 36 155
l0 105 -40 0 -40 0 0 -155z"/>
<path d="M3151 3172 l-21 -42 25 -50 c59 -116 79 -216 73 -361 -4 -89 -11
-132 -32 -194 -49 -142 -131 -257 -246 -344 -120 -90 -216 -130 -363 -151
-192 -28 -417 43 -578 183 -86 73 -113 82 -132 40 -11 -25 -8 -29 66 -98 87
-81 232 -161 347 -190 98 -25 279 -31 373 -11 300 62 536 278 628 576 20 64
23 97 23 225 1 130 -2 159 -22 220 -27 81 -73 179 -101 214 l-19 25 -21 -42z"/>
<path d="M2450 3147 c0 -7 -16 -19 -35 -26 -82 -29 -85 -131 -4 -168 37 -17
38 -20 39 -66 0 -52 -16 -61 -35 -19 -13 29 -65 31 -65 3 0 -27 36 -68 65 -75
15 -4 30 -17 35 -31 11 -30 30 -33 30 -4 0 13 11 25 33 34 19 8 38 20 44 27
38 48 14 129 -43 150 -32 11 -34 15 -34 60 0 50 12 62 30 28 14 -27 60 -27 60
-1 0 21 -53 71 -76 71 -8 0 -14 7 -14 15 0 8 -7 15 -15 15 -8 0 -15 -6 -15
-13z m0 -107 c0 -41 -7 -49 -28 -28 -21 21 -7 68 20 68 4 0 8 -18 8 -40z m65
-140 c9 -27 -3 -60 -21 -60 -10 0 -14 12 -14 40 0 43 23 57 35 20z"/>
<path d="M2620 3008 l0 -153 40 45 39 45 1 108 0 107 -40 0 -40 0 0 -152z"/>
<path d="M2849 2734 l-54 -65 -1 -195 -2 -194 59 0 59 0 0 260 c0 143 -1 260
-3 260 -2 0 -28 -30 -58 -66z"/>
<path d="M2200 2453 l0 -173 60 0 60 0 0 111 0 111 -60 61 -60 62 0 -172z"/>
<path d="M2655 2527 l-55 -54 0 -96 0 -97 60 0 60 0 0 150 c0 83 -2 150 -5
150 -2 0 -29 -24 -60 -53z"/>
<path d="M2061 2461 c-49 -57 -51 -61 -51 -120 l0 -61 55 0 55 0 0 120 c0 66
-2 120 -4 120 -2 0 -27 -26 -55 -59z"/>
<path d="M2400 2347 l0 -67 60 0 60 0 0 55 c0 30 -2 55 -5 55 -3 0 -17 -7 -31
-16 -24 -16 -26 -16 -54 11 l-30 29 0 -67z"/>
<path d="M3640 1566 l0 -156 40 0 40 0 0 40 c0 51 13 51 42 0 21 -37 26 -40
66 -40 l44 0 -27 48 c-15 26 -35 55 -43 65 -14 16 -13 20 9 45 14 15 33 37 43
50 l19 22 -44 0 c-40 0 -47 -4 -74 -41 l-30 -41 -5 79 -5 78 -37 3 -38 3 0
-155z"/>
<path d="M1140 1560 l0 -150 35 0 35 0 0 92 c0 50 3 88 8 84 4 -4 21 -44 38
-89 27 -71 35 -82 57 -85 26 -3 27 -2 78 141 7 20 17 37 21 37 4 0 8 -40 8
-90 l0 -90 35 0 35 0 0 150 0 150 -55 0 c-39 0 -55 -4 -55 -13 0 -7 -15 -51
-34 -98 l-34 -84 -12 30 c-16 41 -60 159 -60 162 0 2 -22 3 -50 3 l-50 0 0
-150z"/>
<path d="M2630 1680 c0 -29 2 -30 45 -30 l45 0 0 -120 0 -120 41 0 41 0 -3 73
c-1 39 -2 93 -1 120 l2 47 45 0 c43 0 45 1 45 30 l0 30 -130 0 -130 0 0 -30z"/>
<path d="M2164 1636 c-46 -20 -64 -52 -64 -112 0 -36 6 -59 20 -77 25 -31 81
-51 123 -43 34 7 77 42 77 63 0 16 -61 18 -77 2 -15 -15 -59 -4 -67 16 -4 13
7 15 74 15 l80 0 0 33 c0 49 -31 91 -77 105 -49 15 -50 15 -89 -2z m74 -58
c21 -21 13 -28 -28 -28 -38 0 -40 2 -30 20 12 22 40 26 58 8z"/>
<path d="M3027 1630 c-23 -18 -27 -19 -27 -5 0 13 -8 16 -37 13 l-38 -3 -2
-112 -2 -113 39 0 40 0 0 68 c0 75 16 102 59 102 19 0 22 5 19 32 -4 40 -17
44 -51 18z"/>
<path d="M3183 1639 c-39 -8 -59 -23 -66 -49 -4 -17 0 -20 34 -20 21 0 39 5
39 11 0 17 44 6 48 -12 2 -13 -9 -18 -47 -23 -62 -8 -93 -37 -89 -81 2 -23 11
-34 40 -48 35 -17 40 -17 70 -2 21 10 34 12 36 5 2 -5 19 -10 38 -10 l34 0 0
89 c0 70 -4 93 -17 110 -21 26 -76 40 -120 30z m67 -135 c0 -20 -24 -44 -45
-44 -32 0 -33 27 -2 40 26 10 47 12 47 4z"/>
<path d="M3450 1639 c-51 -11 -80 -52 -80 -115 0 -63 25 -99 79 -115 63 -19
141 19 141 68 0 19 -56 16 -86 -4 -22 -14 -27 -14 -39 -2 -26 26 -23 94 4 108
14 8 25 6 44 -9 14 -11 37 -20 52 -20 24 0 26 3 21 26 -4 15 -13 32 -20 39
-20 20 -78 32 -116 24z"/>
<path d="M1590 1627 c-33 -17 -50 -52 -50 -108 0 -57 24 -90 78 -108 31 -11
47 -11 76 -1 53 17 76 52 76 117 0 47 -4 59 -29 84 -25 24 -38 29 -78 29 -26
0 -59 -6 -73 -13z m99 -69 c18 -31 7 -74 -21 -92 -40 -25 -72 68 -38 108 18
23 41 16 59 -16z"/>
<path d="M1820 1525 l0 -115 40 0 40 0 0 80 c0 78 1 80 27 86 39 10 53 -16 53
-98 l0 -68 35 0 35 0 0 86 c0 81 -10 120 -34 136 -20 14 -83 8 -97 -8 -11 -14
-13 -14 -21 0 -6 10 -23 16 -43 16 l-35 0 0 -115z"/>
<path d="M2355 1623 c34 -89 68 -193 69 -213 1 -19 -5 -26 -21 -28 -18 -3 -23
-10 -23 -33 0 -26 3 -29 30 -29 37 0 86 24 99 48 11 20 91 253 91 264 0 4 -17
8 -39 8 l-38 0 -17 -67 c-22 -86 -28 -100 -32 -88 -1 6 -12 43 -24 83 l-21 72
-40 0 c-35 0 -40 -3 -34 -17z"/>
</g>
</svg>
